HIERARCHY
ROOT joint_0
{
	OFFSET 0.000000 0.000000 0.000000
	CHANNELS 6 Xposition Yposition Zposition Zrotation Yrotation Xrotation 
	JOINT joint_1
	{
		OFFSET 0.511002 1.944000 108.288940
		CHANNELS 3 Zrotation Yrotation Xrotation
		JOINT joint_2
		{
			OFFSET -9.074005 1.512993 98.440063
			CHANNELS 3 Zrotation Yrotation Xrotation
			JOINT joint_3
			{
				OFFSET -8.590996 1.815002 98.366943
				CHANNELS 3 Zrotation Yrotation Xrotation
				JOINT joint_4
				{
					OFFSET 2.489998 3.531998 136.462036
					CHANNELS 3 Zrotation Yrotation Xrotation
					JOINT joint_5
					{
						OFFSET 22.708000 2.955002 80.357056
						CHANNELS 3 Zrotation Yrotation Xrotation
						End Site
						{
							OFFSET 0.000000 0.000000 0.000000
						}
					}
				}
				JOINT joint_6
				{
					OFFSET 2.860001 -27.684998 77.234009
					CHANNELS 3 Zrotation Yrotation Xrotation
					JOINT joint_7
					{
						OFFSET 5.449997 -131.244003 -18.851929
						CHANNELS 3 Zrotation Yrotation Xrotation
						JOINT joint_8
						{
							OFFSET 35.757000 -24.661995 -264.074097
							CHANNELS 3 Zrotation Yrotation Xrotation
							JOINT joint_9
							{
								OFFSET 49.392001 -1.747002 -239.960938
								CHANNELS 3 Zrotation Yrotation Xrotation
								End Site
								{
									OFFSET 0.000000 0.000000 0.000000
								}
							}
						}
					}
				}
				JOINT joint_10
				{
					OFFSET -0.127998 31.625000 75.753052
					CHANNELS 3 Zrotation Yrotation Xrotation
					JOINT joint_11
					{
						OFFSET -5.618004 131.132996 -19.557007
						CHANNELS 3 Zrotation Yrotation Xrotation
						JOINT joint_12
						{
							OFFSET 46.488998 30.127991 -261.826050
							CHANNELS 3 Zrotation Yrotation Xrotation
							JOINT joint_13
							{
								OFFSET 66.021003 0.474030 -235.934937
								CHANNELS 3 Zrotation Yrotation Xrotation
								End Site
								{
									OFFSET 0.000000 0.000000 0.000000
								}
							}
						}
					}
				}
			}
		}
	}
	JOINT joint_14
	{
		OFFSET 15.887001 -78.871004 -94.561035
		CHANNELS 3 Zrotation Yrotation Xrotation
		JOINT joint_15
		{
			OFFSET -4.133003 6.714001 -473.615967
			CHANNELS 3 Zrotation Yrotation Xrotation
			JOINT joint_16
			{
				OFFSET -19.541000 5.340000 -399.613007
				CHANNELS 3 Zrotation Yrotation Xrotation
				JOINT joint_17
				{
					OFFSET 164.317001 41.657999 -73.195000
					CHANNELS 3 Zrotation Yrotation Xrotation
					End Site
					{
						OFFSET 0.000000 0.000000 0.000000
					}
				}
			}
		}
	}
	JOINT joint_18
	{
		OFFSET 6.513000 77.960991 -96.406982
		CHANNELS 3 Zrotation Yrotation Xrotation
		JOINT joint_19
		{
			OFFSET -10.660004 -8.518997 -473.485016
			CHANNELS 3 Zrotation Yrotation Xrotation
			JOINT joint_20
			{
				OFFSET -36.967995 -11.098999 -398.260010
				CHANNELS 3 Zrotation Yrotation Xrotation
				JOINT joint_21
				{
					OFFSET 166.067997 30.363998 -74.785000
					CHANNELS 3 Zrotation Yrotation Xrotation
					End Site
					{
						OFFSET 0.000000 0.000000 0.000000
					}
				}
			}
		}
	}
}
MOTION
Frames: 14
Frame Time: 0.016667
-1920.952393 863.020447 1055.718018 3.602412 3.229378 2.389139 -2.974957 5.132158 2.025626 -3.465305 -0.759190 -0.339521 -3.423213 0.828860 0.560298 1.247987 -5.807146 -3.274927 0.000000 0.000000 0.000000 9.603377 -17.789931 -5.313075 -12.554484 -12.320056 -2.542699 1.282568 -60.232338 34.398642 0.000000 0.000000 0.000000 -14.035585 -7.834732 -0.879292 16.217019 -6.500175 9.508782 3.180483 -66.444153 -13.880069 0.000000 0.000000 0.000000 -3.554133 -15.365885 -4.081694 -2.280367 28.702070 -0.446924 -3.251431 -8.903648 0.876832 0.000000 0.000000 0.000000 -2.233724 -5.937331 1.063254 -2.042959 5.977409 -2.572163 -1.972206 -2.974438 -0.332704 0.000000 0.000000 0.000000 
-1910.592529 862.821594 1053.397949 3.868922 2.055435 2.765349 -2.918299 6.297461 1.602584 -3.730866 -0.865394 -0.154425 -3.753100 1.060264 0.481441 1.256804 -5.690931 -3.326501 0.000000 0.000000 0.000000 9.646703 -23.716536 -4.993048 -12.184064 -14.458687 -0.155421 1.374688 -54.170105 34.093911 0.000000 0.000000 0.000000 -13.120244 -12.180532 -1.748305 16.054043 -11.733649 10.531239 2.476885 -61.708634 -13.792418 0.000000 0.000000 0.000000 -4.030482 -16.984271 -4.620765 -2.199373 35.282626 -0.383301 -3.416962 -8.374395 0.718816 0.000000 0.000000 0.000000 -2.390845 -4.523102 0.617697 -2.168046 7.084637 -2.611784 -2.016115 -4.224863 -0.120138 0.000000 0.000000 0.000000 
-1898.715454 862.077881 1051.176025 4.155938 1.290200 3.247206 -2.779487 7.101727 1.003808 -3.942381 -0.937426 0.078415 -4.068082 1.206232 0.404003 1.249874 -5.736554 -3.264346 0.000000 0.000000 0.000000 9.771194 -28.647791 -4.027850 -11.482161 -15.464722 1.316644 1.304368 -49.590754 32.946002 0.000000 0.000000 0.000000 -12.177250 -15.596596 -3.121560 15.890388 -15.939865 11.032503 1.601375 -57.787327 -13.604665 0.000000 0.000000 0.000000 -4.610204 -18.387959 -5.091121 -2.292471 40.174731 -0.503499 -3.887627 -7.588928 0.382379 0.000000 0.000000 0.000000 -2.528283 -3.718558 0.136341 -2.346867 8.679892 -2.720229 -2.093974 -5.518154 0.086837 0.000000 0.000000 0.000000 
-1884.656006 860.635559 1049.197998 4.329198 1.253513 3.752071 -2.599140 7.169839 0.495913 -3.939839 -0.974295 0.157494 -4.139575 1.243277 0.342792 1.215972 -5.756027 -3.148125 0.000000 0.000000 0.000000 9.624860 -31.207414 -3.279521 -10.454260 -15.475724 2.900793 1.398660 -48.187879 30.847419 0.000000 0.000000 0.000000 -11.408376 -17.248391 -3.947051 15.584585 -18.044127 9.893025 0.874451 -56.750256 -12.931420 0.000000 0.000000 0.000000 -5.263700 -19.666575 -5.235584 -2.612212 43.259839 -0.876518 -4.865373 -7.483409 0.015043 0.000000 0.000000 0.000000 -2.660358 -3.712081 -0.266089 -2.505402 10.595802 -2.887517 -2.149592 -6.899589 0.320679 0.000000 0.000000 0.000000 
-1869.079468 858.648315 1047.317017 4.388143 1.693136 4.220458 -2.378093 6.767606 0.113211 -3.709263 -0.982726 0.134001 -3.926436 1.226735 0.289076 1.163063 -5.784719 -3.056119 0.000000 0.000000 0.000000 8.981289 -32.012688 -2.891980 -9.300196 -15.087166 4.836006 1.774641 -48.631355 28.443908 0.000000 0.000000 0.000000 -10.550790 -17.775707 -4.231767 14.989051 -18.614222 7.592781 0.194731 -57.549099 -12.123571 0.000000 0.000000 0.000000 -5.922125 -20.923418 -5.105809 -3.075334 45.086702 -1.410058 -6.194287 -7.931705 -0.357592 0.000000 0.000000 0.000000 -2.805926 -4.349362 -0.516789 -2.624037 12.971283 -3.185064 -2.173611 -8.276127 0.569092 0.000000 0.000000 0.000000 
-1853.426636 856.526428 1045.557983 4.417764 2.270835 4.584939 -2.159468 6.382710 -0.148456 -3.335434 -0.966626 0.178344 -3.533997 1.221078 0.250063 1.118706 -6.079425 -3.006475 0.000000 0.000000 0.000000 7.937892 -31.936042 -2.546392 -8.627967 -14.688882 6.078801 2.096129 -50.430264 27.404746 0.000000 0.000000 0.000000 -9.511647 -17.666128 -4.400069 14.455369 -18.526969 5.440682 -0.371726 -59.400696 -12.071634 0.000000 0.000000 0.000000 -6.424843 -21.979418 -4.889246 -3.651142 45.104962 -2.068181 -7.540037 -8.640392 -0.702435 0.000000 0.000000 0.000000 -2.982452 -5.828437 -0.477264 -2.726816 16.628030 -3.859957 -2.209701 -9.272838 0.747981 0.000000 0.000000 0.000000 
-1837.722290 854.292114 1044.355957 4.514042 2.923032 4.639406 -1.992629 6.130731 0.106597 -2.784697 -0.912972 0.172982 -2.889044 1.230228 0.217901 1.095337 -6.865790 -3.046213 0.000000 0.000000 0.000000 6.330117 -30.728261 -2.165029 -8.881630 -14.295451 6.004782 2.193297 -54.167357 28.802824 0.000000 0.000000 0.000000 -8.044011 -16.788747 -4.693259 14.104663 -17.837067 3.971202 -0.831707 -62.417126 -13.386378 0.000000 0.000000 0.000000 -6.741037 -22.552725 -4.412336 -4.558178 41.803644 -2.977900 -8.754416 -9.242023 -1.094520 0.000000 0.000000 0.000000 -3.129501 -8.464790 0.028563 -2.873701 22.212497 -4.797823 -2.359976 -9.198927 0.692839 0.000000 0.000000 0.000000 
-1821.940552 851.923157 1043.274048 4.667046 3.655229 4.423340 -1.887807 6.010720 0.844906 -2.148287 -0.883451 0.027999 -2.119089 1.226313 0.197632 1.064831 -7.950593 -3.093409 0.000000 0.000000 0.000000 4.519830 -28.646556 -1.783487 -9.825496 -13.886256 5.145046 2.175207 -59.335473 31.625633 0.000000 0.000000 0.000000 -6.354704 -15.326753 -5.003259 13.895452 -16.600729 3.129058 -1.243282 -66.338892 -15.556400 0.000000 0.000000 0.000000 -6.935982 -22.635061 -3.714000 -5.740066 36.166457 -3.865186 -9.743824 -9.173035 -1.602943 0.000000 0.000000 0.000000 -3.140546 -11.804454 0.982622 -3.169458 28.801082 -5.949356 -2.810179 -7.831857 0.287437 0.000000 0.000000 0.000000 
-1807.453979 849.774841 1041.025024 4.744242 4.342894 4.190539 -1.856176 6.124874 1.520443 -1.622324 -0.925275 -0.085596 -1.481830 1.237822 0.231177 1.012229 -8.901582 -3.026293 0.000000 0.000000 0.000000 3.094731 -27.333337 -1.435465 -10.845418 -13.587032 4.398896 2.021858 -63.947844 34.547650 0.000000 0.000000 0.000000 -5.093271 -14.173298 -5.125498 14.020289 -15.632130 2.730098 -1.513763 -69.930862 -17.741398 0.000000 0.000000 0.000000 -6.967997 -22.839607 -3.238964 -6.704771 32.063524 -4.254290 -10.518208 -8.976700 -2.014794 0.000000 0.000000 0.000000 -3.114015 -15.095657 2.348415 -3.641577 35.130512 -7.800053 -3.663424 -5.799164 -0.397891 0.000000 0.000000 0.000000 
-1794.934570 848.061462 1036.706055 4.551814 5.127723 3.870597 -1.913488 6.235481 2.211785 -1.176714 -0.902819 -0.217864 -0.888922 1.244039 0.348289 0.934365 -9.555518 -2.819683 0.000000 0.000000 0.000000 2.073403 -27.453576 -1.407241 -11.656586 -13.380100 4.483207 1.658779 -67.279913 37.330533 0.000000 0.000000 0.000000 -4.546175 -13.650987 -4.746240 14.486592 -15.228543 2.118359 -1.543615 -72.675967 -19.660777 0.000000 0.000000 0.000000 -6.695647 -23.870470 -2.987691 -7.229070 31.817995 -4.143190 -11.371316 -10.095975 -2.055767 0.000000 0.000000 0.000000 -3.359005 -18.441665 4.636662 -4.435622 41.315712 -11.215478 -5.397050 -3.097266 -1.550226 0.000000 0.000000 0.000000 
-1783.710205 846.566772 1031.219971 4.099354 5.933454 3.341755 -2.091296 6.487147 3.170503 -0.715388 -0.879502 -0.471986 -0.214077 1.224755 0.501803 0.843289 -10.032722 -2.523361 0.000000 0.000000 0.000000 1.242008 -28.299957 -1.597325 -12.595608 -13.209253 5.036605 1.017692 -69.981488 40.587222 0.000000 0.000000 0.000000 -4.383784 -13.389069 -3.994353 15.252900 -14.985938 1.402434 -1.348486 -75.243925 -21.583367 0.000000 0.000000 0.000000 -6.126301 -25.226296 -2.751670 -7.489184 33.505503 -3.718996 -12.289438 -12.006394 -1.881856 0.000000 0.000000 0.000000 -3.630075 -21.759678 7.683414 -5.386741 47.291715 -15.323123 -7.744040 0.658933 -3.142782 0.000000 0.000000 0.000000 
-1773.134888 844.997192 1025.982056 3.529545 6.552630 2.798057 -2.425161 7.048926 4.083725 -0.306895 -0.967008 -0.723491 0.422881 1.245553 0.617141 0.756027 -10.321807 -2.177439 0.000000 0.000000 0.000000 0.616921 -29.345904 -1.682445 -13.807254 -13.095099 5.654385 0.155871 -72.105312 44.399958 0.000000 0.000000 0.000000 -4.302424 -13.108878 -3.117983 16.366067 -14.628515 0.970119 -0.928732 -78.367634 -23.469244 0.000000 0.000000 0.000000 -5.439636 -26.238702 -2.604117 -7.588563 35.300514 -3.050039 -13.022618 -13.797261 -1.659839 0.000000 0.000000 0.000000 -3.413204 -24.532035 10.452544 -5.924906 52.292646 -18.311131 -9.006038 3.857453 -4.258034 0.000000 0.000000 0.000000 
-1763.149292 842.852905 1021.145020 3.103590 6.986321 2.388903 -3.030684 7.823557 4.723703 -0.096607 -1.130427 -0.862229 0.844082 1.367565 0.687755 0.687861 -10.382510 -1.807795 0.000000 0.000000 0.000000 0.311963 -30.594034 -1.484034 -15.466207 -13.068179 6.173748 -1.054623 -73.457809 49.169685 0.000000 0.000000 0.000000 -4.265852 -12.706956 -2.148255 18.130006 -14.065330 1.110047 -0.120753 -82.696141 -25.347571 0.000000 0.000000 0.000000 -4.752940 -26.735524 -2.717267 -7.592763 36.756029 -1.967052 -13.459068 -15.347323 -1.393259 0.000000 0.000000 0.000000 -2.521831 -26.857926 12.441118 -5.771631 56.595611 -19.641663 -7.798807 4.787263 -4.050503 0.000000 0.000000 0.000000 
-1753.812988 840.633728 1016.557983 2.727099 7.318495 2.064656 -3.794177 8.705880 5.156891 -0.017592 -1.308196 -0.930922 1.120355 1.543952 0.743351 0.622416 -10.256621 -1.395067 0.000000 0.000000 0.000000 0.190414 -32.091855 -1.125544 -17.566615 -13.042662 6.787812 -2.890531 -73.833202 55.152211 0.000000 0.000000 0.000000 -4.319121 -12.289863 -1.099536 20.383715 -13.399578 1.534453 1.000205 -87.605666 -27.100539 0.000000 0.000000 0.000000 -4.038539 -26.977989 -3.015805 -7.453900 38.328040 -0.610996 -13.669212 -16.774757 -1.068301 0.000000 0.000000 0.000000 -1.361592 -28.952509 14.020866 -5.286765 60.251676 -20.107559 -5.241145 4.028429 -2.966018 0.000000 0.000000 0.000000 
